# Simple cube model with normals and texture coordinates

o cube

# Vertices
v -0.5 -0.5 -0.5 
v  0.5 -0.5 -0.5 
v  0.5  0.5 -0.5 
v -0.5  0.5 -0.5 

v -0.5 -0.5  0.5 
v  0.5 -0.5  0.5 
v  0.5  0.5  0.5 
v -0.5  0.5  0.5 

# Texture Coordinates
vt 0.0 0.0
vt 1.0 0.0
vt 1.0 1.0
vt 0.0 1.0

# Normals
vn  0.0  0.0 -1.0
vn  0.0  0.0  1.0
vn  0.0 -1.0  0.0
vn  0.0  1.0  0.0
vn -1.0  0.0  0.0
vn  1.0  0.0  0.0

# Faces with vertex, texture coordinate, and normal indices
# Front Face
f 3/3/1 2/2/1 1/1/1
f 1/1/1 4/4/1 3/3/1

# Back Face
f 5/2/2 6/1/2 7/4/2 
f 7/4/2 8/3/2 5/2/2

# Left Face
f 8/4/5 4/3/5 1/2/5
f 1/2/5 5/1/5 8/4/5

# Right Face
f 3/4/6 7/3/6 6/2/6
f 6/2/6 2/1/6 3/4/6

# Top Face
f 7/3/4 3/2/4 4/1/4
f 4/1/4 8/4/4 7/3/4

# Bottom Face
f 2/3/3 6/2/3 5/1/3
f 5/1/3 1/4/3 2/3/3
